<svg width="32" height="29" viewBox="0 0 32 29" fill="none" xmlns="http://www.w3.org/2000/svg">
<path d="M0 1.8125C0 1.10156 0.546875 0.5 1.3125 0.5H3.77344C4.97656 0.5 6.07031 1.21094 6.5625 2.25H29.0391C30.4609 2.25 31.5 3.61719 31.1172 5.03906L28.875 13.3516C28.4375 15.1016 26.8516 16.25 25.1016 16.25H9.29688L9.625 17.8359C9.73438 18.4375 10.2812 18.875 10.8828 18.875H26.6875C27.3984 18.875 28 19.4766 28 20.1875C28 20.9531 27.3984 21.5 26.6875 21.5H10.8828C9.02344 21.5 7.38281 20.1875 7.05469 18.3281L4.21094 3.50781C4.15625 3.28906 3.99219 3.125 3.77344 3.125H1.3125C0.546875 3.125 0 2.57812 0 1.8125ZM7 25.875C7 24.9453 7.49219 24.125 8.3125 23.6328C9.07812 23.1406 10.1172 23.1406 10.9375 23.6328C11.7031 24.125 12.25 24.9453 12.25 25.875C12.25 26.8594 11.7031 27.6797 10.9375 28.1719C10.1172 28.6641 9.07812 28.6641 8.3125 28.1719C7.49219 27.6797 7 26.8594 7 25.875ZM25.375 23.25C26.3047 23.25 27.125 23.7969 27.6172 24.5625C28.1094 25.3828 28.1094 26.4219 27.6172 27.1875C27.125 28.0078 26.3047 28.5 25.375 28.5C24.3906 28.5 23.5703 28.0078 23.0781 27.1875C22.5859 26.4219 22.5859 25.3828 23.0781 24.5625C23.5703 23.7969 24.3906 23.25 25.375 23.25Z" fill="#A6A6A6"/>
</svg>
