<svg width="25" height="29" viewBox="0 0 25 29" fill="none" xmlns="http://www.w3.org/2000/svg">
<path d="M12.25 14.5C9.73438 14.5 7.4375 13.1875 6.17969 11C4.92188 8.86719 4.92188 6.1875 6.17969 4C7.4375 1.86719 9.73438 0.5 12.25 0.5C14.7109 0.5 17.0078 1.86719 18.2656 4C19.5234 6.1875 19.5234 8.86719 18.2656 11C17.0078 13.1875 14.7109 14.5 12.25 14.5ZM9.73438 17.125H14.7109C20.125 17.125 24.5 21.5 24.5 26.9141C24.5 27.7891 23.7344 28.5 22.8594 28.5H1.58594C0.710938 28.5 0 27.7891 0 26.9141C0 21.5 4.32031 17.125 9.73438 17.125Z" fill="#A6A6A6"/>
</svg>
